{
  "accessors": [
    {
      "bufferView": 2,
      "componentType": 5126,
      "count": 65532,
      "max": [
        5.6144490242004395,
        5.777846813201904,
        5.07144021987915
      ],
      "min": [
        -5.994164943695068,
        -6.248566150665283,
        -0.06801900267601013
      ],
      "type": "VEC3"
    },
    {
      "bufferView": 2,
      "byteOffset": 786384,
      "componentType": 5126,
      "count": 65532,
      "max": [
        0.9999818801879883,
        0.9999997615814209,
        1.0
      ],
      "min": [
        -0.9999977350234985,
        -0.9999834299087524,
        -0.998784601688385
      ],
      "type": "VEC3"
    },
    {
      "bufferView": 3,
      "componentType": 5126,
      "count": 65532,
      "max": [
        0.9999763369560242,
        0.9999845623970032,
        0.9998506307601929,
        1.0
      ],
      "min": [
        -0.9999931454658508,
        -0.9999987483024597,
        -0.9999827742576599,
        -1.0
      ],
      "type": "VEC4"
    },
    {
      "bufferView": 1,
      "componentType": 5126,
      "count": 65532,
      "max": [
        0.999908983707428,
        0.9999819993972778
      ],
      "min": [
        0.00021100000594742596,
        1.8999999156221747e-05
      ],
      "type": "VEC2"
    },
    {
      "bufferView": 0,
      "componentType": 5125,
      "count": 335115,
      "type": "SCALAR"
    },
    {
      "bufferView": 2,
      "byteOffset": 1572768,
      "componentType": 5126,
      "count": 65532,
      "max": [
        2.317370891571045,
        2.982598066329956,
        5.13633918762207
      ],
      "min": [
        -2.471364974975586,
        -5.077237129211426,
        0.3832570016384125
      ],
      "type": "VEC3"
    },
    {
      "bufferView": 2,
      "byteOffset": 2359152,
      "componentType": 5126,
      "count": 65532,
      "max": [
        0.9999995231628418,
        0.9999963045120239,
        0.9999885559082031
      ],
      "min": [
        -0.9999958276748657,
        -1.0,
        -0.9999951124191284
      ],
      "type": "VEC3"
    },
    {
      "bufferView": 3,
      "byteOffset": 1048512,
      "componentType": 5126,
      "count": 65532,
      "max": [
        0.9999990463256836,
        0.9999938011169434,
        0.9999966621398926,
        1.0
      ],
      "min": [
        -0.9999921321868896,
        -0.9999925494194031,
        -0.9999974370002747,
        -1.0
      ],
      "type": "VEC4"
    },
    {
      "bufferView": 1,
      "byteOffset": 524256,
      "componentType": 5126,
      "count": 65532,
      "max": [
        0.9999529719352722,
        0.9996110200881958
      ],
      "min": [
        0.001382000045850873,
        0.0012809999752789736
      ],
      "type": "VEC2"
    },
    {
      "bufferView": 0,
      "byteOffset": 1340460,
      "componentType": 5125,
      "count": 336252,
      "type": "SCALAR"
    },
    {
      "bufferView": 2,
      "byteOffset": 3145536,
      "componentType": 5126,
      "count": 65532,
      "max": [
        2.088675022125244,
        2.753602981567383,
        5.444221019744873
      ],
      "min": [
        -1.9334379434585571,
        -3.4628570079803467,
        0.4366520047187805
      ],
      "type": "VEC3"
    },
    {
      "bufferView": 2,
      "byteOffset": 3931920,
      "componentType": 5126,
      "count": 65532,
      "max": [
        0.9999991655349731,
        0.9999872446060181,
        0.9999998807907104
      ],
      "min": [
        -0.9999998807907104,
        -0.9999990463256836,
        -0.9999949932098389
      ],
      "type": "VEC3"
    },
    {
      "bufferView": 3,
      "byteOffset": 2097024,
      "componentType": 5126,
      "count": 65532,
      "max": [
        0.9999744892120361,
        0.9999710917472839,
        0.9999970197677612,
        1.0
      ],
      "min": [
        -0.9999963045120239,
        -0.9999908208847046,
        -0.9999819397926331,
        -1.0
      ],
      "type": "VEC4"
    },
    {
      "bufferView": 1,
      "byteOffset": 1048512,
      "componentType": 5126,
      "count": 65532,
      "max": [
        0.9998700022697449,
        0.9998930096626282
      ],
      "min": [
        0.0009980000322684646,
        0.001129999989643693
      ],
      "type": "VEC2"
    },
    {
      "bufferView": 0,
      "byteOffset": 2685468,
      "componentType": 5125,
      "count": 323736,
      "type": "SCALAR"
    },
    {
      "bufferView": 2,
      "byteOffset": 4718304,
      "componentType": 5126,
      "count": 65532,
      "max": [
        4.36814022064209,
        3.358207941055298,
        5.069808006286621
      ],
      "min": [
        -3.592015027999878,
        -6.741446018218994,
        0.09387599676847458
      ],
      "type": "VEC3"
    },
    {
      "bufferView": 2,
      "byteOffset": 5504688,
      "componentType": 5126,
      "count": 65532,
      "max": [
        0.9999990463256836,
        0.9999957084655762,
        1.0
      ],
      "min": [
        -0.9999998807907104,
        -0.9999990463256836,
        -0.9999740123748779
      ],
      "type": "VEC3"
    },
    {
      "bufferView": 3,
      "byteOffset": 3145536,
      "componentType": 5126,
      "count": 65532,
      "max": [
        0.9999990463256836,
        0.9999997019767761,
        0.9999970197677612,
        1.0
      ],
      "min": [
        -0.9999963045120239,
        -0.999985933303833,
        -0.9999992251396179,
        -1.0
      ],
      "type": "VEC4"
    },
    {
      "bufferView": 1,
      "byteOffset": 1572768,
      "componentType": 5126,
      "count": 65532,
      "max": [
        0.9999079704284668,
        1.0
      ],
      "min": [
        0.00113800005055964,
        0.0010590000310912728
      ],
      "type": "VEC2"
    },
    {
      "bufferView": 0,
      "byteOffset": 3980412,
      "componentType": 5125,
      "count": 301512,
      "type": "SCALAR"
    },
    {
      "bufferView": 2,
      "byteOffset": 6291072,
      "componentType": 5126,
      "count": 65532,
      "max": [
        4.946749210357666,
        5.299243927001953,
        2.3654251098632813
      ],
      "min": [
        -5.6703081130981445,
        -6.707912921905518,
        0.046845998615026474
      ],
      "type": "VEC3"
    },
    {
      "bufferView": 2,
      "byteOffset": 7077456,
      "componentType": 5126,
      "count": 65532,
      "max": [
        0.9999911785125732,
        0.9999382495880127,
        0.9999995231628418
      ],
      "min": [
        -0.9999998807907104,
        -0.9999977350234985,
        -0.9993045330047607
      ],
      "type": "VEC3"
    },
    {
      "bufferView": 3,
      "byteOffset": 4194048,
      "componentType": 5126,
      "count": 65532,
      "max": [
        0.9999281764030457,
        0.9999994039535522,
        0.9997366666793823,
        1.0
      ],
      "min": [
        -0.9999982714653015,
        -0.9999997615814209,
        -0.9999281167984009,
        -1.0
      ],
      "type": "VEC4"
    },
    {
      "bufferView": 1,
      "byteOffset": 2097024,
      "componentType": 5126,
      "count": 65532,
      "max": [
        0.9948980212211609,
        0.9998170137405396
      ],
      "min": [
        0.006045999936759472,
        0.0022299999836832285
      ],
      "type": "VEC2"
    },
    {
      "bufferView": 0,
      "byteOffset": 5186460,
      "componentType": 5125,
      "count": 331521,
      "type": "SCALAR"
    },
    {
      "bufferView": 2,
      "byteOffset": 7863840,
      "componentType": 5126,
      "count": 3065,
      "max": [
        4.990959167480469,
        5.307901859283447,
        0.5220159888267517
      ],
      "min": [
        -5.702444076538086,
        -6.762975215911865,
        0.10046999901533127
      ],
      "type": "VEC3"
    },
    {
      "bufferView": 2,
      "byteOffset": 7900620,
      "componentType": 5126,
      "count": 3065,
      "max": [
        0.9181312918663025,
        0.9867569804191589,
        0.999974250793457
      ],
      "min": [
        -0.9957155585289001,
        -0.9897006154060364,
        -0.4259077310562134
      ],
      "type": "VEC3"
    },
    {
      "bufferView": 3,
      "byteOffset": 5242560,
      "componentType": 5126,
      "count": 3065,
      "max": [
        0.999809980392456,
        0.9986409544944763,
        0.9629094004631042,
        1.0
      ],
      "min": [
        -0.9999786019325256,
        -0.999994695186615,
        -0.970781147480011,
        1.0
      ],
      "type": "VEC4"
    },
    {
      "bufferView": 1,
      "byteOffset": 2621280,
      "componentType": 5126,
      "count": 3065,
      "max": [
        0.7230049967765808,
        0.8655449748039246
      ],
      "min": [
        0.06645800173282623,
        0.09303499758243561
      ],
      "type": "VEC2"
    },
    {
      "bufferView": 0,
      "byteOffset": 6512544,
      "componentType": 5125,
      "count": 8895,
      "type": "SCALAR"
    }
  ],
  "asset": {
    "extras": {
      "author": "Lassi Kaukonen (https://sketchfab.com/thesidekick)",
      "license": "CC-BY-4.0 (http://creativecommons.org/licenses/by/4.0/)",
      "source": "https://sketchfab.com/3d-models/bulldozer-6472b051eb3b44058f0c066b9c997d22",
      "title": "Bulldozer"
    },
    "generator": "Sketchfab-12.68.0",
    "version": "2.0"
  },
  "bufferViews": [
    {
      "buffer": 0,
      "byteLength": 6548124,
      "name": "floatBufferViews",
      "target": 34963
    },
    {
      "buffer": 0,
      "byteLength": 2645800,
      "byteOffset": 6548124,
      "byteStride": 8,
      "name": "floatBufferViews",
      "target": 34962
    },
    {
      "buffer": 0,
      "byteLength": 7937400,
      "byteOffset": 9193924,
      "byteStride": 12,
      "name": "floatBufferViews",
      "target": 34962
    },
    {
      "buffer": 0,
      "byteLength": 5291600,
      "byteOffset": 17131324,
      "byteStride": 16,
      "name": "floatBufferViews",
      "target": 34962
    }
  ],
  "buffers": [
    {
      "byteLength": 22422924,
      "uri": "scene.bin"
    }
  ],
  "images": [
    {
      "uri": "textures/Caterpillar_Bulldozer_baseColor.jpeg"
    },
    {
      "uri": "textures/Caterpillar_Bulldozer_metallicRoughness.png"
    },
    {
      "uri": "textures/Caterpillar_Bulldozer_normal.png"
    }
  ],
  "materials": [
    {
      "doubleSided": true,
      "emissiveFactor": [
        0.6251482114300655,
        0.6251482114300655,
        0.6251482114300655
      ],
      "emissiveTexture": {
        "index": 0
      },
      "name": "Caterpillar_Bulldozer",
      "normalTexture": {
        "index": 2,
        "scale": 0.3847796742084749
      },
      "occlusionTexture": {
        "index": 1
      },
      "pbrMetallicRoughness": {
        "baseColorTexture": {
          "index": 0
        },
        "metallicFactor": 0.0,
        "metallicRoughnessTexture": {
          "index": 1
        }
      }
    }
  ],
  "meshes": [
    {
      "name": "Object_0",
      "primitives": [
        {
          "attributes": {
            "NORMAL": 1,
            "POSITION": 0,
            "TANGENT": 2,
            "TEXCOORD_0": 3
          },
          "indices": 4,
          "material": 0,
          "mode": 4
        }
      ]
    },
    {
      "name": "Object_1",
      "primitives": [
        {
          "attributes": {
            "NORMAL": 6,
            "POSITION": 5,
            "TANGENT": 7,
            "TEXCOORD_0": 8
          },
          "indices": 9,
          "material": 0,
          "mode": 4
        }
      ]
    },
    {
      "name": "Object_2",
      "primitives": [
        {
          "attributes": {
            "NORMAL": 11,
            "POSITION": 10,
            "TANGENT": 12,
            "TEXCOORD_0": 13
          },
          "indices": 14,
          "material": 0,
          "mode": 4
        }
      ]
    },
    {
      "name": "Object_3",
      "primitives": [
        {
          "attributes": {
            "NORMAL": 16,
            "POSITION": 15,
            "TANGENT": 17,
            "TEXCOORD_0": 18
          },
          "indices": 19,
          "material": 0,
          "mode": 4
        }
      ]
    },
    {
      "name": "Object_4",
      "primitives": [
        {
          "attributes": {
            "NORMAL": 21,
            "POSITION": 20,
            "TANGENT": 22,
            "TEXCOORD_0": 23
          },
          "indices": 24,
          "material": 0,
          "mode": 4
        }
      ]
    },
    {
      "name": "Object_5",
      "primitives": [
        {
          "attributes": {
            "NORMAL": 26,
            "POSITION": 25,
            "TANGENT": 27,
            "TEXCOORD_0": 28
          },
          "indices": 29,
          "material": 0,
          "mode": 4
        }
      ]
    }
  ],
  "nodes": [
    {
      "children": [
        1
      ],
      "matrix": [
        1.0,
        0.0,
        0.0,
        0.0,
        0.0,
        2.220446049250313e-16,
        -1.0,
        0.0,
        0.0,
        1.0,
        2.220446049250313e-16,
        0.0,
        0.0,
        0.0,
        0.0,
        1.0
      ],
      "name": "Sketchfab_model"
    },
    {
      "children": [
        2,
        3,
        4,
        5,
        6,
        7
      ],
      "name": "Caterpillar_Bulldozer_SF.obj.cleaner.materialmerger.gles"
    },
    {
      "mesh": 0,
      "name": "Object_2"
    },
    {
      "mesh": 1,
      "name": "Object_3"
    },
    {
      "mesh": 2,
      "name": "Object_4"
    },
    {
      "mesh": 3,
      "name": "Object_5"
    },
    {
      "mesh": 4,
      "name": "Object_6"
    },
    {
      "mesh": 5,
      "name": "Object_7"
    }
  ],
  "samplers": [
    {
      "magFilter": 9729,
      "minFilter": 9987,
      "wrapS": 10497,
      "wrapT": 10497
    }
  ],
  "scene": 0,
  "scenes": [
    {
      "name": "Sketchfab_Scene",
      "nodes": [
        0
      ]
    }
  ],
  "textures": [
    {
      "sampler": 0,
      "source": 0
    },
    {
      "sampler": 0,
      "source": 1
    },
    {
      "sampler": 0,
      "source": 2
    }
  ]
}
